HIERARCHY
ROOT Hips
{
	OFFSET 0.00000 0.00000 0.00000
	CHANNELS 6 Xposition Yposition Zposition Zrotation Yrotation Xrotation 
	JOINT LHipJoint
	{
		OFFSET 0 0 0
		CHANNELS 3 Zrotation Yrotation Xrotation
		JOINT LeftHip
		{
			OFFSET 1.41496 -1.84582 0.78394
			CHANNELS 3 Zrotation Yrotation Xrotation
			JOINT LeftKnee
			{
				OFFSET 2.58040 -7.08960 0.00000
				CHANNELS 3 Zrotation Yrotation Xrotation
				JOINT LeftAnkle
				{
					OFFSET 2.64719 -7.27309 0.00000
					CHANNELS 3 Zrotation Yrotation Xrotation
					JOINT LeftToe
					{
						OFFSET 0.20718 -0.56921 2.20259
						CHANNELS 3 Zrotation Yrotation Xrotation
						End Site
						{
							OFFSET 0.00000 -0.00000 1.14243
						}
					}
				}
			}
		}
	}
	JOINT RHipJoint
	{
		OFFSET 0 0 0
		CHANNELS 3 Zrotation Yrotation Xrotation
		JOINT RightHip
		{
			OFFSET -1.40551 -1.84582 0.78394
			CHANNELS 3 Zrotation Yrotation Xrotation
			JOINT RightKnee
			{
				OFFSET -2.56572 -7.04926 0.00000
				CHANNELS 3 Zrotation Yrotation Xrotation
				JOINT RightAnkle
				{
					OFFSET -2.57974 -7.08778 0.00000
					CHANNELS 3 Zrotation Yrotation Xrotation
					JOINT RightToe
					{
						OFFSET -0.26704 -0.73369 2.20815
						CHANNELS 3 Zrotation Yrotation Xrotation
						End Site
						{
							OFFSET -0.00000 -0.00000 1.16246
						}
					}
				}
			}
		}
	}
	JOINT lowerback
	{
		OFFSET 0 0 0
		CHANNELS 3 Zrotation Yrotation Xrotation
		JOINT Chest
		{
			OFFSET -0.04690 2.05196 -0.07017
			CHANNELS 3 Zrotation Yrotation Xrotation
			JOINT Chest2
			{
				OFFSET 0.04085 2.05260 0.00800
				CHANNELS 3 Zrotation Yrotation Xrotation
				JOINT lowerneck
				{
					OFFSET 0 0 0
					CHANNELS 3 Zrotation Yrotation Xrotation
					JOINT Neck
					{
						OFFSET -0.03582 1.80995 0.19301
						CHANNELS 3 Zrotation Yrotation Xrotation
						JOINT Head
						{
							OFFSET 0.00952 1.80195 -0.36389
							CHANNELS 3 Zrotation Yrotation Xrotation
							End Site
							{
								OFFSET 0.00392 1.85062 -0.14494
							}
						}
					}
				}
				JOINT LeftCollar
				{
					OFFSET 0 0 0
					CHANNELS 3 Zrotation Yrotation Xrotation
					JOINT LeftShoulder
					{
						OFFSET 3.55224 1.39726 -0.13667
CHANNELS 3 Zrotation Xrotation Yrotation
						JOINT LeftElbow
						{
OFFSET 0 -5.145070 -0.000000
CHANNELS 3 Zrotation Xrotation Yrotation
							JOINT LeftWrist
							{
OFFSET 0 -3.506460 0.000000
CHANNELS 3 Zrotation Xrotation Yrotation
								JOINT lhand
								{
									OFFSET 0 0 0
CHANNELS 3 Zrotation Xrotation Yrotation
									JOINT LFingers
									{
OFFSET 0 -0.629970 0.000000
CHANNELS 3 Zrotation Xrotation Yrotation
										End Site
										{
OFFSET 0 -0.507900 0.000000
										}
									}
								}
								JOINT LThumb
								{
OFFSET 0 0.000000 0.000000
CHANNELS 3 Zrotation Xrotation Yrotation
									End Site
									{
OFFSET 0 -0.515650 0.515650
									}
								}
							}
						}
					}
				}
				JOINT RightCollar
				{
					OFFSET 0 0 0
					CHANNELS 3 Zrotation Yrotation Xrotation
					JOINT RightShoulder
					{
						OFFSET -3.06467 1.61290 -0.28813
CHANNELS 3 Zrotation Xrotation Yrotation
						JOINT RightElbow
						{
OFFSET 0 -5.232000 -0.000000
CHANNELS 3 Zrotation Xrotation Yrotation
							JOINT RightWrist
							{
OFFSET 0 -3.656410 0.000000
CHANNELS 3 Zrotation Xrotation Yrotation
								JOINT rhand
								{
									OFFSET 0 0 0
CHANNELS 3 Zrotation Xrotation Yrotation
									JOINT RFingers
									{
OFFSET 0 -0.656810 0.000000
CHANNELS 3 Zrotation Xrotation Yrotation
										End Site
										{
OFFSET 0 -0.529530 0.000000
										}
									}
								}
								JOINT RThumb
								{
OFFSET 0 0.000000 0.000000
CHANNELS 3 Zrotation Xrotation Yrotation
									End Site
									{
OFFSET 0 -0.537620 0.537620
									}
								}
							}
						}
					}
				}
			}
		}
	}
}
MOTION
Frames: 11
Frame Time: 0.008333333333333333
2.924000 15.998100 -48.619300 -5.167700 -13.744200 29.622800 0.000000 0.000000 0.000000 -13.097200 -11.862000 -62.704100 16.770800 19.748100 80.520300 1.148500 -18.149000 -21.504000 0.026500 -1.051100 -2.889500 0.000000 0.000000 0.000000 22.712200 -3.402000 -5.459600 -3.736300 -11.801000 35.031600 0.129600 8.790300 -3.251600 -0.500700 4.536200 -12.590400 5.812900 2.457800 11.431200 2.050800 4.301100 -2.246000 -1.869200 1.841800 -8.568700 -0.301300 1.025600 -21.285800 -5.257400 1.805900 1.189200 -1.437800 0.556800 3.739200 0.000000 0.000000 0.000000 6.257600 25.321300 -48.489800 97.515100 -59.785500 66.503600 26.541500 -20.478900 16.482700 0.000000 0.000000 0.000000 -7.125000 0.000000 0.000000 -0.832500 11.680000 -0.646800 0.000000 0.000000 0.000000 -1.640600 3.717800 57.143200 -113.613400 -57.784600 -80.297700 -25.295500 -3.035700 -4.669900 0.000000 0.000000 0.000000 7.125000 0.000000 -0.000000 1.022800 24.817100 0.499100
2.911535 16.006444 -48.525984 -4.991524 -13.626772 29.600016 0.000000 0.000000 0.000000 -13.437802 -11.823550 -62.129494 16.664100 19.730493 80.204083 1.163996 -18.340058 -21.675646 0.020983 -0.916167 -2.518383 0.000000 0.000000 0.000000 22.503466 -3.215744 -6.430558 -4.153155 -12.324759 36.945283 0.133142 8.682034 -3.011568 -0.743933 5.372498 -15.008634 5.641356 2.405727 11.516819 2.016096 4.210032 -2.240789 -1.799179 1.803725 -8.626937 -0.320440 1.015621 -21.335182 -5.168955 1.791153 1.177825 -1.408443 0.554348 3.740767 0.000000 0.000000 0.000000 6.217788 25.019046 -48.658211 97.677040 -59.775930 66.643505 26.658247 -20.600108 16.598050 0.000000 0.000000 0.000000 -7.125000 0.000000 0.000000 -0.766464 11.535599 -0.597384 0.000000 0.000000 0.000000 -1.729079 4.293155 56.666099 -113.283935 -57.847980 -80.018673 -25.312699 -2.955564 -4.623991 0.000000 0.000000 0.000000 7.125000 0.000000 0.000000 1.009007 24.867095 0.491233
2.899070 16.014788 -48.432669 -4.815349 -13.509345 29.577232 0.000000 0.000000 0.000000 -13.778403 -11.785100 -61.554889 16.557400 19.712885 79.887866 1.179492 -18.531117 -21.847292 0.015466 -0.781234 -2.147267 0.000000 0.000000 0.000000 22.294732 -3.029487 -7.401517 -4.570010 -12.848518 38.858967 0.136684 8.573767 -2.771536 -0.987167 6.208796 -17.426869 5.469812 2.353654 11.602437 1.981392 4.118964 -2.235579 -1.729159 1.765649 -8.685174 -0.339580 1.005643 -21.384565 -5.080509 1.776407 1.166450 -1.379086 0.551896 3.742333 0.000000 0.000000 0.000000 6.177975 24.716792 -48.826621 97.838980 -59.766360 66.783410 26.774993 -20.721316 16.713401 0.000000 0.000000 0.000000 -7.125000 0.000000 0.000000 -0.700428 11.391199 -0.547967 0.000000 0.000000 0.000000 -1.817559 4.868510 56.188998 -112.954470 -57.911359 -79.739646 -25.329897 -2.875429 -4.578083 0.000000 0.000000 0.000000 7.125000 0.000000 0.000000 0.995214 24.917091 0.483366
2.886883 16.022270 -48.339774 -4.635903 -13.388711 29.551449 0.000000 0.000000 0.000000 -14.123120 -11.751066 -60.974273 16.451052 19.695237 79.572647 1.197648 -18.707422 -22.030018 0.010825 -0.666698 -1.832252 0.000000 0.000000 0.000000 22.083196 -2.846349 -8.367626 -4.989226 -13.368581 40.769985 0.139225 8.445881 -2.537203 -1.215777 6.994213 -19.698160 5.300781 2.299385 11.690344 1.946252 4.025360 -2.229901 -1.660559 1.726200 -8.744123 -0.358264 0.995831 -21.431117 -4.994071 1.761773 1.153046 -1.350417 0.549457 3.742897 0.000000 0.000000 0.000000 6.136518 24.408013 -48.994431 98.008665 -59.756237 66.930002 26.888324 -20.843791 16.825346 0.000000 0.000000 0.000000 -7.125000 0.000000 0.000000 -0.636341 11.251037 -0.499979 0.000000 0.000000 0.000000 -1.904869 5.445512 55.709158 -112.607499 -57.977591 -79.445703 -25.355067 -2.799217 -4.527927 0.000000 0.000000 0.000000 7.125000 0.000000 0.000000 0.975338 24.971474 0.472510
2.878778 16.017093 -48.253066 -4.408403 -13.220982 29.481598 0.000000 0.000000 0.000000 -14.528293 -11.781922 -60.305365 16.349869 19.676982 79.272096 1.254898 -18.666962 -22.375523 0.019067 -0.851830 -2.341503 0.000000 0.000000 0.000000 21.830495 -2.709033 -9.262502 -5.443134 -13.834341 42.641847 0.127067 8.029742 -2.386604 -1.229536 7.032084 -19.810513 5.168675 2.212847 11.811858 1.904703 3.894479 -2.217368 -1.612846 1.666566 -8.813531 -0.370252 0.988475 -21.436089 -4.937128 1.748797 1.109828 -1.331856 0.547209 3.728730 0.000000 0.000000 0.000000 6.070890 24.003350 -49.153408 98.292154 -59.737982 67.174836 26.951465 -20.984889 16.887261 0.000000 0.000000 0.000000 -7.125000 0.000000 0.000000 -0.600888 11.173149 -0.472972 0.000000 0.000000 0.000000 -1.974991 6.046716 55.189077 -112.003332 -58.085721 -78.932603 -25.497357 -2.780656 -4.415370 0.000000 0.000000 0.000000 7.125000 0.000000 0.000000 0.866084 25.090332 0.417747
2.870672 16.011917 -48.166357 -4.180904 -13.053252 29.411748 0.000000 0.000000 0.000000 -14.933466 -11.812777 -59.636456 16.248687 19.658728 78.971545 1.312147 -18.626503 -22.721029 0.027309 -1.036963 -2.850754 0.000000 0.000000 0.000000 21.577794 -2.571716 -10.157377 -5.897043 -14.300101 44.513709 0.114909 7.613602 -2.236005 -1.243295 7.069956 -19.922866 5.036569 2.126309 11.933373 1.863154 3.763599 -2.204836 -1.565132 1.606933 -8.882938 -0.382240 0.981119 -21.441061 -4.880185 1.735822 1.066610 -1.313295 0.544961 3.714562 0.000000 0.000000 0.000000 6.005263 23.598688 -49.312385 98.575642 -59.719728 67.419670 27.014606 -21.125986 16.949176 0.000000 0.000000 0.000000 -7.125000 0.000000 0.000000 -0.565435 11.095261 -0.445965 0.000000 0.000000 0.000000 -2.045114 6.647920 54.668996 -111.399165 -58.193851 -78.419504 -25.639646 -2.762095 -4.302812 0.000000 0.000000 0.000000 7.125000 0.000000 0.000000 0.756830 25.209190 0.362984
2.861964 16.007083 -48.079636 -3.948743 -12.892997 29.338712 0.000000 0.000000 0.000000 -15.338887 -11.838762 -58.969999 16.146627 19.640100 78.668269 1.361853 -18.619869 -23.031155 0.033007 -1.149000 -3.158997 0.000000 0.000000 0.000000 21.320375 -2.431178 -11.043012 -6.350534 -14.755249 46.364957 0.101470 7.190327 -2.137784 -1.277940 7.158646 -20.188832 4.887977 2.041919 12.052621 1.821709 3.632554 -2.188778 -1.507700 1.548307 -8.947888 -0.387418 0.977126 -21.442722 -4.831663 1.725898 1.017836 -1.298176 0.543912 3.698450 0.000000 0.000000 0.000000 5.936641 23.184854 -49.468493 98.895314 -59.698435 67.695700 27.061284 -21.251505 17.000162 0.000000 0.000000 0.000000 -7.125000 0.000000 0.000000 -0.539739 11.031966 -0.426480 0.000000 0.000000 0.000000 -2.110441 7.246172 54.139440 -110.753216 -58.306947 -77.870509 -25.772546 -2.749056 -4.194200 0.000000 0.000000 0.000000 7.125000 0.000000 0.000000 0.654694 25.324112 0.311823
2.849124 16.004597 -47.992825 -3.684667 -12.783913 29.243863 0.000000 0.000000 0.000000 -15.746002 -11.831406 -58.320333 16.038565 19.618917 78.346330 1.359911 -18.844814 -23.099064 0.021291 -0.760617 -2.091113 0.000000 0.000000 0.000000 21.030654 -2.268591 -11.865380 -6.801173 -15.137740 48.075083 0.079265 6.718198 -2.398148 -1.455580 7.595254 -21.506454 4.626524 1.972239 12.156358 1.780977 3.500380 -2.148591 -1.383734 1.496574 -8.982320 -0.345970 0.996164 -21.421709 -4.840790 1.736864 0.931025 -1.306623 0.551063 3.669025 0.000000 0.000000 0.000000 5.847514 22.708229 -49.604958 99.462699 -59.656341 68.185300 26.995248 -21.270372 16.976322 0.000000 0.000000 0.000000 -7.125000 0.000000 0.000000 -0.580846 11.068577 -0.458493 0.000000 0.000000 0.000000 -2.142931 7.824218 53.545013 -109.821219 -58.454038 -77.075760 -25.841171 -2.773815 -4.112600 0.000000 0.000000 0.000000 7.125000 0.000000 0.000000 0.601293 25.412080 0.285327
2.836285 16.002111 -47.906015 -3.420591 -12.674830 29.149015 0.000000 0.000000 0.000000 -16.153116 -11.824050 -57.670666 15.930503 19.597734 78.024391 1.357970 -19.069759 -23.166973 0.009576 -0.372234 -1.023230 0.000000 0.000000 0.000000 20.740933 -2.106004 -12.687749 -7.251813 -15.520232 49.785210 0.057060 6.246069 -2.658512 -1.633221 8.031861 -22.824076 4.365070 1.902559 12.260095 1.740245 3.368206 -2.108404 -1.259767 1.444842 -9.016751 -0.304523 1.015202 -21.400696 -4.849918 1.747830 0.844215 -1.315069 0.558215 3.639600 0.000000 0.000000 0.000000 5.758388 22.231605 -49.741424 100.030085 -59.614247 68.674900 26.929212 -21.289240 16.952482 0.000000 0.000000 0.000000 -7.125000 0.000000 0.000000 -0.621952 11.105188 -0.490507 0.000000 0.000000 0.000000 -2.175421 8.402263 52.950586 -108.889221 -58.601129 -76.281011 -25.909795 -2.798574 -4.031000 0.000000 0.000000 0.000000 7.125000 0.000000 0.000000 0.547892 25.500049 0.258831
2.822898 16.004241 -47.816945 -3.133955 -12.568650 29.049141 0.000000 0.000000 0.000000 -16.575896 -11.833576 -57.027861 15.819205 19.575489 77.692563 1.350553 -19.295134 -23.202530 0.000139 -0.043581 -0.119621 0.000000 0.000000 0.000000 20.429284 -1.932212 -13.532515 -7.703506 -15.891421 51.478857 0.033149 5.757604 -2.988294 -1.734430 8.277636 -23.567239 4.083341 1.828119 12.361397 1.693432 3.225380 -2.064604 -1.128352 1.389028 -9.046221 -0.261344 1.038823 -21.382020 -4.858648 1.764057 0.749402 -1.323209 0.568102 3.608169 0.000000 0.000000 0.000000 5.651304 21.702575 -49.848115 100.667528 -59.563786 69.224667 26.870917 -21.308263 16.941501 0.000000 0.000000 0.000000 -7.125000 0.000000 0.000000 -0.659243 11.126466 -0.519708 0.000000 0.000000 0.000000 -2.180449 8.969117 52.322049 -107.779797 -58.763345 -75.333154 -26.017869 -2.850744 -3.947382 0.000000 0.000000 0.000000 7.125000 0.000000 0.000000 0.464548 25.588903 0.218558
2.807198 16.025901 -47.718316 -2.751872 -12.474755 28.928001 0.000000 0.000000 0.000000 -17.064951 -11.914529 -56.414090 15.694217 19.548754 77.318892 1.319970 -19.522327 -23.101211 0.000343 0.032366 0.088977 0.000000 0.000000 0.000000 20.024860 -1.711013 -14.472039 -8.159663 -16.214789 53.102785 0.002021 5.200027 -3.611771 -1.512277 7.716040 -21.879999 3.715835 1.733544 12.452397 1.620891 3.037488 -2.005515 -0.965425 1.315942 -9.054701 -0.210838 1.081837 -21.373234 -4.865697 1.802541 0.620736 -1.330054 0.589558 3.568255 0.000000 0.000000 0.000000 5.468249 20.951828 -49.828839 101.601364 -59.477929 70.028985 26.845374 -21.327948 16.984924 0.000000 0.000000 0.000000 -7.125000 0.000000 0.000000 -0.680392 11.082873 -0.537008 0.000000 0.000000 0.000000 -2.069287 9.488618 51.549199 -105.919719 -58.989550 -73.737526 -26.292843 -3.018882 -3.855224 0.000000 0.000000 0.000000 7.125000 0.000000 0.000000 0.254520 25.681503 0.119997
